<svg xmlns="http://www.w3.org/2000/svg" width="24" height="24" viewBox="0 0 24 24">
  <path d="M12 2.2c3.2 0 3.6 0 4.9.1 1.2.1 1.9.2 2.3.4.6.2 1 .4 1.5.9.5.5.7.9.9 1.5.2.4.3 1 .4 2.3.1 1.3.1 1.7.1 4.9s0 3.6-.1 4.9c-.1 1.2-.2 1.9-.4 2.3-.2.6-.4 1-.9 1.5-.5.5-.9.7-1.5.9-.4.2-1 .3-2.3.4-1.3.1-1.7.1-4.9.1s-3.6 0-4.9-.1c-1.2-.1-1.9-.2-2.3-.4-.6-.2-1-.4-1.5-.9-.5-.5-.7-.9-.9-1.5-.2-.4-.3-1-.4-2.3-.1-1.3-.1-1.7-.1-4.9s0-3.6.1-4.9c.1-1.2.2-1.9.4-2.3.2-.6.4-1 .9-1.5.5-.5.9-.7 1.5-.9.4-.2 1-.3 2.3-.4C8.4 2.2 8.8 2.2 12 2.2zm0-2.2C8.7 0 8.3 0 7 .1 5.7.2 4.8.4 4 .7 3.2 1 2.5 1.5 1.8 2.2.9 3.1.4 3.8.1 4.7.1 5.6 0 6.5 0 12c0 5.5.1 6.4.1 7.3.3.9.8 1.6 1.7 2.5.7.7 1.4 1.2 2.2 1.5.9.3 1.8.5 3.1.6 1.3.1 1.7.1 5.9.1s4.6 0 5.9-.1c1.3-.1 2.2-.3 3.1-.6.8-.3 1.5-.8 2.2-1.5.9-.9 1.4-1.6 1.7-2.5.1-.9.1-1.8.1-7.3s0-6.4-.1-7.3c-.3-.9-.8-1.6-1.7-2.5-.7-.7-1.4-1.2-2.2-1.5C19.2.4 18.3.2 17 .1 15.7 0 15.3 0 12 0z"></path>
  <path d="M12 5.8c-3.4 0-6.2 2.8-6.2 6.2s2.8 6.2 6.2 6.2 6.2-2.8 6.2-6.2S15.4 5.8 12 5.8zm0 10.2c-2.2 0-4-1.8-4-4s1.8-4 4-4 4 1.8 4 4-1.8 4-4 4z"></path>
  <circle cx="18.4" cy="5.6" r="1.4"></circle>
</svg>
